#!OML:ASF F:\VICON\USERDATA\INSTALL\rory3\rory3.ASF
:FULLY-SPECIFIED
:DEGREES
321
root -0.30398 17.9542 30.1669 -2.9006 -2.94933 -6.78436
lowerback 10.7204 1.84747 5.77767
upperback 0.81993 3.26727 2.28237
thorax -4.96717 1.50802 -1.33664
lowerneck -16.808 -2.97996 -1.81966
upperneck 20.4016 -3.94516 1.26732
head 9.25929 -1.84073 0.23099
rclavicle 2.01642e-014 -2.78299e-015
rhumerus -25.9809 -12.2465 -82.464
rradius 26.4268
rwrist 3.12516
rhand -17.6722 22.5715
rfingers 7.12502
rthumb 8.58672 -7.23392
lclavicle 2.01642e-014 -2.78299e-015
lhumerus -34.0087 -0.341935 84.7211
lradius 27.3656
lwrist 7.15038
lhand -28.2171 19.3946
lfingers 7.12502
lthumb -1.5956 49.3683
rfemur -4.55614 4.54592 33.9176
rtibia 28.9969
rfoot -17.9925 -2.89017
rtoes 10.1661
lfemur -25.1988 2.14655 -13.2602
ltibia 57.8123
lfoot -9.2361 -1.67259
ltoes -5.60877
322
root -0.309701 17.9407 30.3242 -2.80071 -3.17663 -7.18063
lowerback 10.9048 1.93464 6.11997
upperback 0.787417 3.44611 2.38124
thorax -5.08019 1.58517 -1.45727
lowerneck -17.069 -2.92712 -1.69455
upperneck 20.5426 -3.84872 1.03498
head 9.34686 -1.80947 0.138387
rclavicle -1.27657e-015 4.96962e-015
rhumerus -25.7313 -11.4714 -82.6781
rradius 26.8812
rwrist 2.56667
rhand -18.2372 22.4907
rfingers 7.12502
rthumb 8.04138 -7.33633
lclavicle -1.27657e-015 4.96962e-015
lhumerus -34.372 -0.0520336 84.6423
lradius 27.351
lwrist 6.75141
lhand -28.2328 18.9493
lfingers 7.12502
lthumb -1.61072 48.923
rfemur -3.86903 4.86737 34.4545
rtibia 28.6446
rfoot -18.1201 -3.03726
rtoes 10.5066
lfemur -25.8344 2.15351 -12.7694
ltibia 55.9571
lfoot -9.27092 -0.990481
ltoes -4.62988
323
root -0.311701 17.9275 30.486 -2.71955 -3.35672 -7.44097
lowerback 11.2988 2.03013 6.36426
upperback 0.504129 3.65595 2.41031
thorax -5.57414 1.66169 -1.61735
lowerneck -16.6674 -2.94521 -1.56988
upperneck 20.5356 -3.91371 1.03318
head 9.26873 -1.83293 0.114891
rclavicle -4.77518e-014 -1.82882e-014
rhumerus -25.9696 -10.6717 -82.8254
rradius 27.3726
rwrist 1.51164
rhand -18.2081 22.6766
rfingers 7.12502
rthumb 8.06951 -7.14933
lclavicle -4.77518e-014 -1.82882e-014
lhumerus -35.0268 0.07029 84.6131
lradius 27.0794
lwrist 7.14905
lhand -28.6328 17.2878
lfingers 7.12502
lthumb -1.99703 47.2582
rfemur -3.1945 4.92075 34.7982
rtibia 28.3453
rfoot -18.0853 -2.9914
rtoes 11.3647
lfemur -26.2669 2.07829 -12.4472
ltibia 53.9568
lfoot -9.31059 -0.143106
ltoes -4.23448
324
root -0.306218 17.9139 30.6583 -2.63961 -3.57359 -7.43795
lowerback 11.3624 2.16791 6.47728
upperback 0.456449 3.85682 2.33183
thorax -5.63331 1.75335 -1.79632
lowerneck -16.4312 -2.8842 -1.43625
upperneck 20.2606 -3.87013 1.06672
head 9.12726 -1.80161 0.115548
rclavicle -5.98528e-015 8.19987e-015
rhumerus -25.7065 -10.4256 -82.8727
rradius 27.623
rwrist 1.82034
rhand -17.7691 22.2924
rfingers 7.12502
rthumb 8.49315 -7.51676
lclavicle -5.98528e-015 8.19987e-015
lhumerus -35.1762 -0.331781 84.8324
lradius 26.4653
lwrist 8.56694
lhand -29.6742 13.8212
lfingers 7.12502
lthumb -3.00287 43.7798
rfemur -2.54032 4.76417 34.7783
rtibia 28.1454
rfoot -18.3773 -2.74239
rtoes 11.5731
lfemur -26.4763 2.11835 -12.507
ltibia 51.7703
lfoot -9.23048 0.788131
ltoes -2.93582
325
root -0.300231 17.8942 30.833 -2.37934 -3.92764 -7.51904
lowerback 10.9715 2.33257 6.61859
upperback 0.571012 4.05078 2.33062
thorax -5.26853 1.85997 -1.88043
lowerneck -16.6469 -2.84017 -1.54894
upperneck 20.112 -3.77729 1.0871
head 9.11693 -1.76396 0.150791
rclavicle -2.65906e-014 -2.22639e-014
rhumerus -25.0675 -10.0547 -82.9553
rradius 27.4948
rwrist 1.76151
rhand -17.8913 22.8712
rfingers 7.12502
rthumb 8.37524 -6.94279
lclavicle -2.65906e-014 -2.22639e-014
lhumerus -35.036 0.249988 84.6286
lradius 26.3672
lwrist 7.40955
lhand -28.4254 17.7157
lfingers 7.12502
lthumb -1.79673 47.6878
rfemur -2.09199 4.94572 34.843
rtibia 28.0101
rfoot -18.8248 -2.55405
rtoes 11.8687
lfemur -26.784 2.20442 -12.4436
ltibia 49.4576
lfoot -9.03443 1.72508
ltoes -1.76407
326
root -0.293243 17.8776 31.0063 -2.13734 -4.1924 -7.50462
lowerback 10.8022 2.50205 6.62336
upperback 0.581108 4.25919 2.31084
thorax -5.14503 1.96677 -1.923
lowerneck -17.023 -2.85773 -1.44175
upperneck 20.2457 -3.80617 0.99552
head 9.22816 -1.77597 0.091691
rclavicle -3.00165e-014 -1.49089e-016
rhumerus -24.725 -9.40808 -83.0527
rradius 27.7254
rwrist 0.959984
rhand -18.2578 23.1547
rfingers 7.12502
rthumb 8.02154 -6.6731
lclavicle -3.00165e-014 -1.49089e-016
lhumerus -35.0304 0.821129 84.4567
lradius 26.114
lwrist 6.42448
lhand -27.5287 18.5463
lfingers 7.12502
lthumb -0.930694 48.524
rfemur -1.59653 5.12513 34.8093
rtibia 27.8256
rfoot -19.1145 -2.49815
rtoes 12.3655
lfemur -27.0537 2.02674 -12.4425
ltibia 47.0012
lfoot -9.06501 2.84553
ltoes -1.64701
327
root -0.290636 17.8646 31.1807 -1.97481 -4.38086 -7.41238
lowerback 10.8656 2.64708 6.51419
upperback 0.447809 4.44935 2.25554
thorax -5.31051 2.05403 -1.95453
lowerneck -16.7895 -2.75414 -1.07184
upperneck 20.0722 -3.68521 0.666759
head 9.10913 -1.73017 -0.0611684
rclavicle -2.75596e-014 -2.32081e-014
rhumerus -24.8388 -8.88868 -83.1313
rradius 28.3466
rwrist 0.349375
rhand -18.3034 22.5699
rfingers 7.12502
rthumb 7.97756 -7.25953
lclavicle -2.75596e-014 -2.32081e-014
lhumerus -35.2737 1.06422 84.3727
lradius 25.8133
lwrist 6.1188
lhand -27.458 18.3154
lfingers 7.12502
lthumb -0.862431 48.2934
rfemur -0.993903 5.06492 34.6888
rtibia 27.538
rfoot -19.3559 -2.35458
rtoes 12.5579
lfemur -27.1876 1.86665 -12.5359
ltibia 44.3836
lfoot -9.12996 3.8662
ltoes -3.63173
